<?xml version="1.0" encoding="UTF-8" standalone="no"?>
<!-- Created with Inkscape (http://www.inkscape.org/) -->

<svg
   width="400mm"
   height="400mm"
   viewBox="0 0 400 400"
   version="1.1"
   id="svg12127"
   inkscape:version="1.2 (dc2aedaf03, 2022-05-15)"
   sodipodi:docname="starShapes2.svg"
   xmlns:inkscape="http://www.inkscape.org/namespaces/inkscape"
   xmlns:sodipodi="http://sodipodi.sourceforge.net/DTD/sodipodi-0.dtd"
   xmlns="http://www.w3.org/2000/svg"
   xmlns:svg="http://www.w3.org/2000/svg">
  <sodipodi:namedview
     id="namedview12129"
     pagecolor="#ffffff"
     bordercolor="#666666"
     borderopacity="1.0"
     inkscape:showpageshadow="2"
     inkscape:pageopacity="0.0"
     inkscape:pagecheckerboard="0"
     inkscape:deskcolor="#d1d1d1"
     inkscape:document-units="mm"
     showgrid="false"
     inkscape:zoom="1.0212917"
     inkscape:cx="755.41595"
     inkscape:cy="755.90552"
     inkscape:window-width="1920"
     inkscape:window-height="1017"
     inkscape:window-x="-8"
     inkscape:window-y="-8"
     inkscape:window-maximized="1"
     inkscape:current-layer="layer2"
     showguides="true">
    <sodipodi:guide
       position="200,200"
       orientation="-1,0"
       id="guide491"
       inkscape:locked="false"
       inkscape:label=""
       inkscape:color="rgb(0,134,229)" />
    <sodipodi:guide
       position="200,200"
       orientation="0,1"
       id="guide493"
       inkscape:locked="false"
       inkscape:label=""
       inkscape:color="rgb(0,134,229)" />
  </sodipodi:namedview>
  <defs
     id="defs12124">
    <inkscape:path-effect
       effect="clone_original"
       linkeditem=""
       method="bsplinespiro"
       allow_transforms="false"
       id="path-effect345"
       lpeversion="1"
       is_visible="true"
       attributes=""
       css_properties="" />
  </defs>
  <g
     inkscape:label="background"
     inkscape:groupmode="layer"
     id="layer1">
    <circle
       style="opacity:0.5;fill:none;fill-rule:evenodd;stroke:#0000ff;stroke-width:0.2;stroke-dasharray:none"
       id="path578"
       cx="200"
       cy="200"
       r="99.900002"
       inkscape:label="unit circle (c 200, 200 r 100)"
       sodipodi:insensitive="true" />
    <path
       sodipodi:type="star"
       style="display:none;opacity:0.5;fill:none;fill-rule:evenodd;stroke:#0000ff;stroke-width:0.2"
       id="path1543"
       inkscape:flatsided="false"
       sodipodi:sides="12"
       sodipodi:cx="200"
       sodipodi:cy="200"
       sodipodi:r1="100"
       sodipodi:r2="2.1579185e-06"
       sodipodi:arg1="2.8421709e-16"
       sodipodi:arg2="-0.78539816"
       inkscape:rounded="0"
       inkscape:randomized="0"
       d="m 300,200 -100,0 86.60254,50 L 200,200 250,286.60254 200,200 200,300 200,200 150,286.60254 200,200 113.39746,250 200,200 100,200 200,200 113.39746,150 200,200 150,113.39746 200,200 200,100 200,200 250,113.39746 200,200 286.60254,150 200,200 Z"
       inkscape:transform-center-x="2.519685e-06"
       inkscape:transform-center-y="-2.519685e-06"
       inkscape:label="unit star12" />
    <path
       sodipodi:type="star"
       style="display:none;opacity:0.5;fill:none;fill-rule:evenodd;stroke:#0000ff;stroke-width:0.2"
       id="path8808"
       inkscape:flatsided="false"
       sodipodi:sides="11"
       sodipodi:cx="200"
       sodipodi:cy="200"
       sodipodi:r1="100"
       sodipodi:r2="2.1579185e-06"
       sodipodi:arg1="2.8421709e-16"
       sodipodi:arg2="0.28559933"
       inkscape:rounded="0"
       inkscape:randomized="0"
       d="m 300,200 -100,0 84.12535,54.06408 L 200,200 241.5415,290.9632 200,200 185.76852,298.98214 200,200 134.51393,275.57496 200,200 104.0507,228.17326 200,200 104.0507,171.82674 200,200 134.51393,124.42504 200,200 185.76852,101.01786 200,200 241.5415,109.0368 200,200 284.12535,145.93592 200,200 Z"
       inkscape:transform-center-x="2.519685e-06"
       inkscape:transform-center-y="-2.519685e-06"
       inkscape:label="unit star11" />
    <path
       sodipodi:type="star"
       style="display:none;opacity:0.5;fill:none;fill-rule:evenodd;stroke:#0000ff;stroke-width:0.2"
       id="path8805"
       inkscape:flatsided="false"
       sodipodi:sides="10"
       sodipodi:cx="200"
       sodipodi:cy="200"
       sodipodi:r1="100"
       sodipodi:r2="2.1579185e-06"
       sodipodi:arg1="2.8421709e-16"
       sodipodi:arg2="0.31415927"
       inkscape:rounded="0"
       inkscape:randomized="0"
       d="m 300,200 -100,0 80.9017,58.77853 L 200,200 230.9017,295.10565 200,200 169.0983,295.10565 200,200 119.0983,258.77853 200,200 100,200 200,200 119.0983,141.22147 200,200 169.0983,104.89435 200,200 230.9017,104.89435 200,200 280.9017,141.22147 200,200 Z"
       inkscape:transform-center-x="2.519685e-06"
       inkscape:transform-center-y="-2.519685e-06"
       inkscape:label="unit star10" />
    <path
       sodipodi:type="star"
       style="display:inline;opacity:0.5;fill:none;fill-rule:evenodd;stroke:#0000ff;stroke-width:0.2"
       id="path8802"
       inkscape:flatsided="false"
       sodipodi:sides="9"
       sodipodi:cx="200"
       sodipodi:cy="200"
       sodipodi:r1="100"
       sodipodi:r2="2.1579185e-06"
       sodipodi:arg1="2.8421709e-16"
       sodipodi:arg2="0.34906585"
       inkscape:rounded="0"
       inkscape:randomized="0"
       d="m 300,200 -100,0 76.60444,64.27876 L 200,200 217.36482,298.48078 200,200 150,286.60254 200,200 106.03074,234.20201 200,200 106.03074,165.79799 200,200 150,113.39746 200,200 217.36482,101.51922 200,200 276.60444,135.72124 200,200 Z"
       inkscape:transform-center-x="2.519685e-06"
       inkscape:transform-center-y="-2.519685e-06"
       inkscape:label="unit star9" />
    <path
       sodipodi:type="star"
       style="display:none;opacity:0.5;fill:none;fill-rule:evenodd;stroke:#0000ff;stroke-width:0.2"
       id="path8799"
       inkscape:flatsided="false"
       sodipodi:sides="8"
       sodipodi:cx="200"
       sodipodi:cy="200"
       sodipodi:r1="100"
       sodipodi:r2="2.1579185e-06"
       sodipodi:arg1="2.8421709e-16"
       sodipodi:arg2="0.39269908"
       inkscape:rounded="0"
       inkscape:randomized="0"
       d="m 300,200 -100,0 70.71068,70.71068 L 200,200 200,300 200,200 129.28932,270.71068 200,200 100,200 200,200 129.28932,129.28932 200,200 200,100 200,200 270.71068,129.28932 200,200 Z"
       inkscape:transform-center-x="2.519685e-06"
       inkscape:transform-center-y="-2.519685e-06"
       inkscape:label="unit star8" />
    <path
       sodipodi:type="star"
       style="display:none;opacity:0.5;fill:none;fill-rule:evenodd;stroke:#0000ff;stroke-width:0.2"
       id="path8633"
       inkscape:flatsided="false"
       sodipodi:sides="7"
       sodipodi:cx="200"
       sodipodi:cy="200"
       sodipodi:r1="100"
       sodipodi:r2="2.1579185e-06"
       sodipodi:arg1="2.8421709e-16"
       sodipodi:arg2="0.44879895"
       inkscape:rounded="0"
       inkscape:randomized="0"
       d="m 300,200 -100,0 62.34898,78.18315 L 200,200 177.74791,297.49279 200,200 109.90311,243.38837 200,200 109.90311,156.61163 200,200 177.74791,102.50721 200,200 262.34898,121.81685 200,200 Z"
       inkscape:transform-center-x="2.519685e-06"
       inkscape:transform-center-y="-2.519685e-06"
       inkscape:label="unit star7" />
    <path
       sodipodi:type="star"
       style="display:none;opacity:0.5;fill:none;fill-rule:evenodd;stroke:#0000ff;stroke-width:0.2"
       id="path8796"
       inkscape:flatsided="false"
       sodipodi:sides="6"
       sodipodi:cx="200"
       sodipodi:cy="200"
       sodipodi:r1="100"
       sodipodi:r2="2.1579185e-06"
       sodipodi:arg1="2.8421709e-16"
       sodipodi:arg2="0.52359878"
       inkscape:rounded="0"
       inkscape:randomized="0"
       d="m 300,200 -100,0 50,86.60254 L 200,200 150,286.60254 200,200 100,200 200,200 150,113.39746 200,200 250,113.39746 200,200 Z"
       inkscape:transform-center-x="2.519685e-06"
       inkscape:transform-center-y="-2.519685e-06"
       inkscape:label="unit star6" />
    <path
       sodipodi:type="star"
       style="display:none;opacity:0.5;fill:none;fill-rule:evenodd;stroke:#0000ff;stroke-width:0.2"
       id="path8793"
       inkscape:flatsided="false"
       sodipodi:sides="5"
       sodipodi:cx="200"
       sodipodi:cy="200"
       sodipodi:r1="100"
       sodipodi:r2="2.1579185e-06"
       sodipodi:arg1="2.8421709e-16"
       sodipodi:arg2="0.62831853"
       inkscape:rounded="0"
       inkscape:randomized="0"
       d="m 300,200 -100,0 30.9017,95.10565 L 200,200 119.0983,258.77853 200,200 119.0983,141.22147 200,200 230.9017,104.89435 200,200 Z"
       inkscape:transform-center-x="2.519685e-06"
       inkscape:transform-center-y="-2.519685e-06"
       inkscape:label="unit star5" />
    <path
       sodipodi:type="star"
       style="display:none;opacity:0.5;fill:none;fill-rule:evenodd;stroke:#0000ff;stroke-width:0.2"
       id="path8737"
       inkscape:flatsided="false"
       sodipodi:sides="4"
       sodipodi:cx="200"
       sodipodi:cy="200"
       sodipodi:r1="100"
       sodipodi:r2="2.1579185e-06"
       sodipodi:arg1="2.8421709e-16"
       sodipodi:arg2="0.78539816"
       inkscape:rounded="0"
       inkscape:randomized="0"
       d="m 300,200 -100,0 0,100 0,-100 -100,0 100,0 0,-100 0,100 z"
       inkscape:transform-center-x="2.519685e-06"
       inkscape:transform-center-y="-2.519685e-06"
       inkscape:label="unit star4" />
    <path
       sodipodi:type="star"
       style="display:none;opacity:0.5;fill:none;fill-rule:evenodd;stroke:#0000ff;stroke-width:0.2"
       id="path8791"
       inkscape:flatsided="false"
       sodipodi:sides="3"
       sodipodi:cx="200"
       sodipodi:cy="200"
       sodipodi:r1="100"
       sodipodi:r2="2.1579185e-06"
       sodipodi:arg1="2.8421709e-16"
       sodipodi:arg2="1.0471976"
       inkscape:rounded="0"
       inkscape:randomized="0"
       d="M 300,200 200,200 150,286.60254 200,200 150,113.39746 200,200 Z"
       inkscape:transform-center-x="2.519685e-06"
       inkscape:transform-center-y="-2.519685e-06"
       inkscape:label="unit star3" />
  </g>
  <g
     inkscape:groupmode="layer"
     id="layer2"
     inkscape:label="foreground"
     style="display:inline">
    <path
       sodipodi:type="star"
       style="display:inline;opacity:0.5;fill:none;fill-rule:evenodd;stroke:#000000;stroke-width:0.2"
       id="path1548"
       inkscape:flatsided="false"
       sodipodi:sides="12"
       sodipodi:cx="200"
       sodipodi:cy="200"
       sodipodi:r1="87.678856"
       sodipodi:r2="44.698067"
       sodipodi:arg1="-0.0036176072"
       sodipodi:arg2="-0.4081226"
       inkscape:rounded="-0.39642166"
       inkscape:randomized="0"
       d="m 287.67828,199.68281 c -12.26623,-15.46794 -51.69705,1.66269 -46.65137,-17.42288 7.15567,-27.06679 39.16028,88.99981 35.0633,61.30452 -2.88889,-19.52875 -45.6023,-24.4086 -31.68983,-38.41435 19.73039,-19.86269 -10.58611,96.65624 -0.28655,70.62293 7.26252,-18.35685 -27.28845,-43.93962 -8.23702,-49.11272 27.01836,-7.3364 -57.49596,78.41371 -35.55962,61.01797 15.46794,-12.26623 -1.66269,-51.69705 17.42288,-46.65137 27.06679,7.15567 -88.99981,39.16028 -61.30452,35.0633 19.52875,-2.88889 24.4086,-45.6023 38.41435,-31.68983 19.86269,19.73039 -96.656243,-10.58611 -70.62293,-0.28655 18.35685,7.26252 43.93962,-27.28845 49.11272,-8.23702 7.3364,27.01836 -78.413705,-57.49596 -61.01797,-35.55962 12.26623,15.46794 51.69705,-1.66269 46.65137,17.42288 -7.15567,27.06679 -39.16028,-88.99981 -35.0633,-61.30452 2.88889,19.52875 45.6023,24.4086 31.68983,38.41435 -19.73039,19.86269 10.58611,-96.656243 0.28655,-70.62293 -7.26252,18.35685 27.28845,43.93962 8.23702,49.11272 -27.01836,7.3364 57.49596,-78.413705 35.55962,-61.01797 -15.46794,12.26623 1.66269,51.69705 -17.42288,46.65137 -27.06679,-7.15567 88.99981,-39.16028 61.30452,-35.0633 -19.52875,2.88889 -24.4086,45.6023 -38.41435,31.68983 -19.86269,-19.73039 96.65624,10.58611 70.62293,0.28655 -18.35685,-7.26252 -43.93962,27.28845 -49.11272,8.23702 -7.3364,-27.01836 78.41371,57.49596 61.01797,35.55962 z"
       inkscape:transform-center-x="2.519685e-06"
       inkscape:transform-center-y="-2.519685e-06"
       inkscape:label="roundedStar12.1" />
    <path
       sodipodi:type="star"
       style="display:none;opacity:0.5;fill:none;fill-rule:evenodd;stroke:#ff0000;stroke-width:0.2;stroke-opacity:1"
       id="path1966"
       inkscape:flatsided="false"
       sodipodi:sides="7"
       sodipodi:cx="200"
       sodipodi:cy="200"
       sodipodi:r1="89.248909"
       sodipodi:r2="16.71417"
       sodipodi:arg1="-1.5665851"
       sodipodi:arg2="-0.93719717"
       inkscape:rounded="1.1435685"
       inkscape:randomized="0"
       d="m 200.37585,110.75188 c 85.84894,16.06226 -69.01049,37.55464 9.51976,75.77814 75.33508,36.66829 20.81462,-115.877157 60.11571,-41.88146 40.96796,77.13405 -72.38873,-30.53964 -53.31025,54.68974 18.30223,81.76165 103.57411,-55.97469 70.22578,20.8877 -34.76273,80.12234 -21.25679,-75.63695 -75.99657,-7.58114 -52.51258,65.28681 108.34018,46.07785 27.4544,67.92799 -84.31637,22.77686 45.88196,-63.77809 -41.45591,-64.14327 -83.78434,-0.35033 31.52388,113.43283 -35.9907,63.81712 -70.378072,-51.72005 78.47065,-3.89303 24.30189,-72.40421 -51.96479,-65.72366 -69.03054,95.37058 -72.33407,11.65066 -3.44365,-87.27071 51.96934,58.92356 71.75987,-26.1433 18.98531,-81.60574 -117.603564,5.49233 -54.20841,-49.28899 66.08392,-57.104749 -13.66594,77.36951 65.18121,39.80404 75.63908,-36.03703 -77.61871,-88.521748 4.73729,-73.11302 z"
       inkscape:transform-center-x="2.519685e-06"
       inkscape:transform-center-y="-2.519685e-06"
       inkscape:label="roundedStar7.1"
       transform="translate(-0.375849,0.1879245)" />
    <path
       id="path8811"
       style="display:inline;opacity:0.5;fill:none;fill-rule:evenodd;stroke:#000000;stroke-width:0.2"
       inkscape:label="roundedPath12.1"
       inkscape:transform-center-x="2.519685e-06"
       inkscape:transform-center-y="-2.519685e-06"
       d="m 287.67828,199.68281 c -12.26623,-15.46794 -51.69705,1.66269 -46.65137,-17.42288 7.15567,-27.06679 39.16028,88.99981 35.0633,61.30452 -2.88889,-19.52875 -45.6023,-24.4086 -31.68983,-38.41435 19.73039,-19.86269 -10.58611,96.65624 -0.28655,70.62293 7.26252,-18.35685 -27.28845,-43.93962 -8.23702,-49.11272 27.01836,-7.3364 -57.49596,78.41371 -35.55962,61.01797 15.46794,-12.26623 -1.66269,-51.69705 17.42288,-46.65137 27.06679,7.15567 -88.99981,39.16028 -61.30452,35.0633 19.52875,-2.88889 24.4086,-45.6023 38.41435,-31.68983 19.86269,19.73039 -96.656243,-10.58611 -70.62293,-0.28655 18.35685,7.26252 43.93962,-27.28845 49.11272,-8.23702 7.3364,27.01836 -78.413705,-57.49596 -61.01797,-35.55962 12.26623,15.46794 51.69705,-1.66269 46.65137,17.42288 -7.15567,27.06679 -39.16028,-88.99981 -35.0633,-61.30452 2.88889,19.52875 45.6023,24.4086 31.68983,38.41435 -19.73039,19.86269 10.58611,-96.656243 0.28655,-70.62293 -7.26252,18.35685 27.28845,43.93962 8.23702,49.11272 -27.01836,7.3364 57.49596,-78.413705 35.55962,-61.01797 -15.46794,12.26623 1.66269,51.69705 -17.42288,46.65137 -27.06679,-7.15567 88.99981,-39.16028 61.30452,-35.0633 -19.52875,2.88889 -24.4086,45.6023 -38.41435,31.68983 -19.86269,-19.73039 96.65624,10.58611 70.62293,0.28655 -18.35685,-7.26252 -43.93962,27.28845 -49.11272,8.23702 -7.3364,-27.01836 78.41371,57.49596 61.01797,35.55962 z" />
  </g>
  <g
     inkscape:groupmode="layer"
     id="layer3"
     inkscape:label="foci" />
</svg>
